<svg width="787" height="591" viewBox="0 0 787 591" fill="none" xmlns="http://www.w3.org/2000/svg">
<path opacity="0.22" d="M-32.171 500.394C-37.7978 417.724 -12.2457 333.308 38.3021 267.658C74.0411 221.222 124.048 183.241 181.799 173.302C238.298 163.594 295.833 181.247 348.808 203.182C401.767 225.117 453.644 251.813 510.143 261.505C566.642 271.213 630.67 260.593 669.005 217.96C703.029 180.134 710.17 122.522 693.135 74.5712C676.101 26.6204 637.61 -11.7465 592.828 -35.9229C548.046 -60.0992 497.267 -71.1671 446.642 -76.2374C303.639 -90.5824 156.293 -57.9041 32.768 15.5525C-35.4483 56.1144 -97.1877 109.645 -138.971 177.12C-180.754 244.594 -201.359 326.785 -186.983 404.832C-179.131 447.435 -160.117 487.996 -132.617 521.463C-118.149 539.085 -101.454 553.569 -83.2135 567.095C-66.5343 579.446 -52.8231 598.166 -29.2187 587.546C-23.561 584.996 -18.3517 580.575 -16.6513 574.608C-14.5026 567.095 -23.0353 555.625 -25.4004 548.205C-30.1461 533.35 -31.1199 515.883 -32.171 500.394Z" fill="#D6CFE1"/>
<circle opacity="0.21" cx="732.075" cy="-24.6659" r="54.876" fill="#D6CFE1"/>
<circle opacity="0.21" cx="745.214" cy="85.859" r="27.8245" fill="#D6CFE1"/>
</svg>
