<svg width="739" height="591" viewBox="0 0 739 591" fill="none" xmlns="http://www.w3.org/2000/svg">
<path opacity="0.22" d="M960.012 90.6062C965.639 173.276 940.087 257.692 889.539 323.342C853.8 369.778 803.793 407.759 746.042 417.698C689.543 427.406 632.008 409.753 579.034 387.818C526.074 365.883 474.197 339.187 417.698 329.495C361.199 319.787 297.172 330.407 258.836 373.04C224.813 410.866 217.671 468.478 234.706 516.429C251.741 564.38 290.231 602.746 335.013 626.923C379.795 651.099 430.575 662.167 481.2 667.237C624.202 681.582 771.548 648.904 895.073 575.448C963.289 534.886 1025.03 481.355 1066.81 413.88C1108.6 346.406 1129.2 264.215 1114.82 186.168C1106.97 143.565 1087.96 103.004 1060.46 69.5369C1045.99 51.9148 1029.3 37.4306 1011.05 23.9048C994.375 11.5538 980.664 -7.16583 957.06 3.45384C951.402 6.00441 946.193 10.4254 944.492 16.3922C942.344 23.9048 950.877 35.3747 953.242 42.7945C957.987 57.6497 958.961 75.1173 960.012 90.6062Z" fill="#D6CFE1"/>
<circle opacity="0.21" cx="180.217" cy="577.671" r="54.876" fill="#D6CFE1"/>
<circle opacity="0.21" cx="71.2382" cy="578.444" r="27.8245" fill="#D6CFE1"/>
<circle opacity="0.21" cx="86.6961" cy="436.23" r="86.565" fill="#D6CFE1"/>
</svg>
