<svg width="183" height="181" viewBox="0 0 183 181" fill="none" xmlns="http://www.w3.org/2000/svg">
<g filter="url(#filter0_d_232_134)">
<rect width="170" height="170" rx="85" fill="url(#paint0_linear_232_134)"/>
<path fill-rule="evenodd" clip-rule="evenodd" d="M51.2948 88.9563C50.2244 91.1796 49.292 93.0589 48.4061 94.9621C43.9729 104.494 40.3006 114.29 38.4054 124.668C37.3508 130.44 36.7744 136.255 38.2818 142.049C39.5768 147.029 42.2715 149.585 46.8815 149.796C48.8989 149.891 51.0093 149.463 52.9736 148.909C58.1745 147.436 62.6994 144.591 67.0756 141.51C68.1381 140.761 69.2245 140.294 70.55 140.786C72.8981 141.66 73.7481 144.773 71.7679 146.252C64.6212 151.576 57.0576 156.167 47.7965 156.452C40.2116 156.685 34.7211 152.617 32.3013 145.387C30.4951 139.992 30.3888 134.443 31.0515 128.876C33.0198 112.303 39.4161 97.2465 47.0966 82.6504C47.7567 81.3966 47.7965 80.4005 47.329 79.0605C45.4112 73.5527 43.6276 67.9972 41.8758 62.4337C41.5437 61.3791 41.2037 61.079 40.0589 61.33C32.5337 62.9848 25.1201 65.0049 18.445 68.9587C15.8671 70.4861 13.3941 72.3826 11.3329 74.5475C7.90497 78.1467 7.8399 82.1298 10.6409 86.239C13.0847 89.8262 16.5285 92.2793 20.1622 94.4959C21.2991 95.1919 22.4984 95.7842 23.6433 96.4669C25.3074 97.4616 25.8772 99.3901 25.0232 100.994C24.1665 102.6 22.2447 103.236 20.4996 102.339C15.3943 99.7141 10.6329 96.5997 6.81458 92.2301C4.47443 89.5526 2.75982 86.5431 2.19271 82.9758C1.48615 78.5266 2.76115 74.6059 5.43333 71.0837C8.18919 67.454 11.8083 64.8641 15.7595 62.7126C22.7667 58.8969 30.3171 56.6178 38.0733 54.9377C38.6046 54.8222 39.1305 54.6787 39.8504 54.4994C39.4851 52.4302 39.0933 50.4221 38.7799 48.3994C37.5089 40.173 36.9232 31.9399 38.9433 23.7401C39.7428 20.4968 40.9979 17.4315 43.1813 14.8483C47.6385 9.57959 53.3707 8.40686 59.7988 9.9767C66.1526 11.5293 71.4876 15.0475 76.4628 19.1421C77.8706 20.3002 77.9091 22.392 76.7603 23.7401C75.5876 25.1147 73.764 25.294 72.1676 24.2062C69.6601 22.4996 67.2217 20.6761 64.6159 19.1341C61.6303 17.369 58.4242 16.1166 54.8515 16.0994C51.9004 16.0847 49.6068 17.2854 47.9254 19.676C45.7951 22.7081 45.034 26.2064 44.6316 29.7937C43.7803 37.3812 44.791 44.84 46.2692 52.2629C46.4272 53.0518 46.7301 53.3307 47.5601 53.247C53.55 52.6494 59.5411 52.053 65.5403 51.5523C66.8445 51.4448 67.6958 50.9733 68.5047 49.9506C76.3008 40.1026 84.8472 30.9837 94.9011 23.3748C100.502 19.1368 106.42 15.4419 113.229 13.4245C117.495 12.1615 121.813 11.694 126.109 13.204C131.475 15.09 134.474 19.1673 136.02 24.4294C137.659 30.0155 137.402 35.7104 136.737 41.4041C136.566 42.8624 136.311 44.314 136.036 45.7564C135.663 47.7194 134.207 48.7593 132.247 48.5308C130.464 48.3237 129.301 46.8906 129.488 44.9011C129.747 42.1572 130.373 39.4279 130.401 36.6893C130.434 33.4487 130.365 30.1244 129.69 26.9767C128.284 20.4317 123.756 17.8644 117.058 19.3413C112.034 20.4476 107.578 22.8117 103.336 25.6074C94.6222 31.3502 87.1834 38.5314 80.2772 46.2956C78.9929 47.7393 77.7577 49.2281 76.5093 50.7023C76.4336 50.79 76.4389 50.9467 76.3433 51.3199H78.1508C95.9358 51.4992 113.459 53.6136 130.584 58.5423C138.739 60.8904 146.61 63.9504 153.854 68.4567C157.708 70.854 161.246 73.6284 164.045 77.2489C169.752 84.6333 169.272 92.9234 162.707 99.5362C158.274 104.003 152.814 106.824 146.998 109.015C145.353 109.633 143.541 108.725 142.912 107.149C142.22 105.417 142.97 103.625 144.731 102.771C147.417 101.47 150.21 100.342 152.749 98.7964C154.845 97.5187 156.842 95.9356 158.522 94.1493C162.078 90.3655 162.209 86.2297 159.194 81.9956C156.937 78.8241 153.903 76.5051 150.641 74.4784C142.593 69.4767 133.761 66.3782 124.667 63.9597C115.187 61.4376 105.555 59.6778 95.7737 58.9819C87.979 58.428 80.1563 58.2687 72.3469 57.8981C71.2194 57.8437 70.449 58.177 69.8222 59.1439C65.2441 66.2042 60.6143 73.2313 56.0601 80.3076C55.7281 80.8229 55.5873 81.7499 55.8144 82.2958C63.5242 100.642 73.2886 117.767 86.2285 132.97C91.6765 139.368 97.6012 145.285 104.796 149.762C108.172 151.862 111.695 153.613 115.782 153.886C119.485 154.135 122.186 152.585 124.024 149.443C125.756 146.483 126.451 143.208 126.762 139.842C127.766 128.982 125.618 118.507 122.771 108.14C119.854 97.5201 115.726 87.3493 110.997 77.4123C110.616 76.6127 110.303 75.6631 110.345 74.8025C110.42 73.2366 111.655 72.1223 113.2 71.8806C114.557 71.6681 115.986 72.4145 116.665 73.8701C118.357 77.4933 120.074 81.1098 121.624 84.7953C126.408 96.1787 130.26 107.858 132.295 120.074C133.714 128.601 134.393 137.158 132.422 145.699C131.98 147.609 131.328 149.507 130.511 151.291C127.155 158.627 120.349 161.942 112.464 160.218C106.053 158.814 100.643 155.465 95.5944 151.463C86.3095 144.104 78.7764 135.131 71.9631 125.518C64.1962 114.568 57.6366 102.923 52.1408 90.6762C51.935 90.2207 51.6986 89.7784 51.2948 88.9563ZM47.9373 59.804L52.182 73.303C55.5355 68.1844 58.6619 63.4138 62.0247 58.278L47.9373 59.804ZM85.6215 94.6513C80.2865 94.6447 75.9448 90.3203 75.9554 85.0237C75.9647 79.6422 80.3011 75.3537 85.7251 75.355C91.0562 75.3576 95.3886 79.678 95.3925 84.9905C95.3952 90.3655 91.0536 94.658 85.6215 94.6513Z" fill="#FDF0F4"/>
</g>
<defs>
<filter id="filter0_d_232_134" x="0" y="0" width="183" height="181" filterUnits="userSpaceOnUse" color-interpolation-filters="sRGB">
<feFlood flood-opacity="0" result="BackgroundImageFix"/>
<feColorMatrix in="SourceAlpha" type="matrix" values="0 0 0 0 0 0 0 0 0 0 0 0 0 0 0 0 0 0 127 0" result="hardAlpha"/>
<feOffset dx="9" dy="7"/>
<feGaussianBlur stdDeviation="2"/>
<feComposite in2="hardAlpha" operator="out"/>
<feColorMatrix type="matrix" values="0 0 0 0 0 0 0 0 0 0 0 0 0 0 0 0 0 0 0.25 0"/>
<feBlend mode="normal" in2="BackgroundImageFix" result="effect1_dropShadow_232_134"/>
<feBlend mode="normal" in="SourceGraphic" in2="effect1_dropShadow_232_134" result="shape"/>
</filter>
<linearGradient id="paint0_linear_232_134" x1="85" y1="0" x2="85" y2="170" gradientUnits="userSpaceOnUse">
<stop stop-color="#402DAE"/>
<stop offset="1" stop-color="#BD63D1"/>
</linearGradient>
</defs>
</svg>
